<svg xmlns="http://www.w3.org/2000/svg" viewBox="0 0 347.58 328.94"><defs><style>.cls-1{fill:#fff;}.cls-2{fill:#3e2a76;}.cls-3{fill:#161e35;}.cls-4{fill:#1a2645;}.cls-5{fill:#1c2f51;}.cls-6{fill:#f5a781;}.cls-7{fill:#fbd3bb;}.cls-8{fill:#af978b;}.cls-9{fill:#fff8f2;}.cls-10{fill:#b3647e;}.cls-11{fill:#f5a680;}.cls-12{fill:#1d1d1b;}.cls-13{fill:#1d1d1d;}</style></defs><g id="Camada_5" data-name="Camada 5"><path class="cls-1" d="M271.66,434.23a60.37,60.37,0,0,1-15.22,10.11c-.68.34,44.13,131.23,44.13,131.23L342.19,445s-11.85-3.55-14.23-8.66c0,0-13.92,15.83-30.09,22.64C299.07,460,288.68,458.06,271.66,434.23Z" transform="translate(-122.69 -254.6)"/><path class="cls-2" d="M168.19,583.54a174,174,0,1,1,256.19,0" transform="translate(-122.69 -254.6)"/></g><g id="Camada_2" data-name="Camada 2"><path class="cls-3" d="M175,583.53l1.71-81.7s5.1-31,41.87-39.15c.34-.34,35.06-12.25,36.76-17-.34,0,45.28,129.7,45.28,129.7l41.53-129.7s18.73,11.57,29.28,14c0,.68,54.81,7.49,51.06,55,0,.17-2,68.93-2,68.93Z" transform="translate(-122.69 -254.6)"/></g><g id="Camada_3" data-name="Camada 3"><path class="cls-4" d="M378.49,583.13l-154.55.4s-.33-1.38-.35-1.41l-37.41-100a.08.08,0,0,1,0-.08c.66-.88,15.51-20.24,53.72-28.89l.06,0c.62-.21,11-2.6,16.55-8.05a.07.07,0,0,1,.12,0c.93,4.76,41.87,121.68,43.84,127.3a.07.07,0,0,0,.14,0l41.09-127.34a.07.07,0,0,1,.11,0c1.06.75,12.27,8.74,19.41,7.85,0,0,.09-.09.1-.07.53.84,36.84,11.85,48.24,25.36" transform="translate(-122.69 -254.6)"/></g><g id="Camada_18" data-name="Camada 18"><path class="cls-1" d="M271.09,434.94s-9.55,9.1-14.65,9.4l44.88,129.48,40.41-129.23s-9.71-2-13.45-7.87l-57.19-1.78" transform="translate(-122.69 -254.6)"/></g><g id="Camada_6" data-name="Camada 6"><path d="M298.83,462s16,8.34,14.64,19.74c0-.34.42,3.41-7.28,7.49.3.34,4.38,87.83,4.38,87.83l-23.09-1.36,5-85.44s-8.34-1.2-8-6.13C284.7,484,280.11,469.83,298.83,462Z" transform="translate(-122.69 -254.6)"/></g><g id="Camada_4" data-name="Camada 4"><path class="cls-5" d="M293.52,583.12,228.22,512a0,0,0,0,1,0-.07l23.31-8.78a0,0,0,0,0,0-.08L233.66,498s0,0,0-.05l7.09-44.93.43-.25c.31-.13,10.69-4,13.91-6.85,0,0,1.37-1.65,1.38-1.62,1,3.06,43.32,125.16,44.88,129.48,0,0,.07,0,.08,0l40.33-129.23c-1.28-.3,13.49,8.36,19.58,8.23,0,0,0,0,0,0,0,2.67,6.21,41.9,6.4,43.11,0,0,0,0,0,0l-18.25,7.77a0,0,0,0,0,0,.08l26,8.79s0,.05,0,.08l-68.7,70.4H293.52Z" transform="translate(-122.69 -254.6)"/></g><g id="Camada_7" data-name="Camada 7"><path class="cls-6" d="M271.09,434.94s16.08,23,26.55,25c.51-.51,13.79-1.79,30.64-23.24.25-.25,0-26,0-26H271.09Z" transform="translate(-122.69 -254.6)"/></g><g id="Camada_8" data-name="Camada 8"><path class="cls-7" d="M299.17,429.83s-19.15,4.6-38-38.3c.25,0-20.94-4.34-19.92-34.47-.25,1.28-.25-8.42,5.62-8.17.77.51,6.64,4.09,6.89,10.47,0-1.79,1.79-56.93,1.79-56.93h92.43l2.29,49s12-11.49,11.24,13.53c-.26-.51-4.85,27.83-21.19,26C341,391,320.62,434.43,299.17,429.83Z" transform="translate(-122.69 -254.6)"/></g><g id="Camada_10" data-name="Camada 10"><path class="cls-8" d="M301.64,372.65s-8.77,4.6-1.28,10c0,.25.94-1,.94-1s-5.36-3.41.34-7.41A9.61,9.61,0,0,0,301.64,372.65Z" transform="translate(-122.69 -254.6)"/></g><g id="Camada_9" data-name="Camada 9"><path class="cls-9" d="M281.23,397.66h39.71l-17.37,13.66S285,407,285.38,404.11,281.23,397.66,281.23,397.66Z" transform="translate(-122.69 -254.6)"/><path class="cls-10" d="M277.47,396.06s10.08,17,22.85,16.92c-.13.13,11,2.11,23-16.92.07.07-4.66,0-4.66,0s-9.25,12.9-18.28,11.68-13.31-5.61-18-11.68Z" transform="translate(-122.69 -254.6)"/></g><g id="Camada_11" data-name="Camada 11"><path class="cls-11" d="M254.49,365.23s-8-18.38-8.17.9c-.13,0,2.42,15.57,11.23,19,0,.13,2.94-2.68-2.29-12.51C255.89,373.15,252.32,368.68,254.49,365.23Z" transform="translate(-122.69 -254.6)"/><path class="cls-11" d="M347.28,365.23s8.05-18.38,8.17.9c.13,0-2.42,15.57-11.23,19,0,.13-2.94-2.68,2.3-12.51C345.88,373.15,349.45,368.68,347.28,365.23Z" transform="translate(-122.69 -254.6)"/></g><g id="Camada_12" data-name="Camada 12"><path class="cls-1" d="M264.06,357.57s3.24,13,26.13,4.81c.13,0-3-8.12-13.06-9.19C277.09,353.23,270.7,351.91,264.06,357.57Z" transform="translate(-122.69 -254.6)"/><path class="cls-1" d="M339.31,357.57s-3.24,13-26.13,4.81c-.13,0,3-8.12,13.06-9.19C326.28,353.23,332.67,351.91,339.31,357.57Z" transform="translate(-122.69 -254.6)"/></g><g id="Camada_13" data-name="Camada 13"><path class="cls-12" d="M263.43,358.5s5.1-7,11.52-6.45c0,0,13,.13,15.48,10.09-.13,0-3.74-5.88-7-5.06,0,0,.54,8.09-7,6.88.06,0-6.39-.1-3.93-8.87,0,.15-1.82-1.54-9.09,3.6" transform="translate(-122.69 -254.6)"/><circle class="cls-1" cx="158.74" cy="105.88" r="2.62"/><circle class="cls-1" cx="152.18" cy="102.95" r="1.28"/><path class="cls-12" d="M339.89,358s-5.11-7-11.52-6.44c0,0-13,.12-15.48,10.08.13,0,3.73-5.87,7-5.06,0,0-.55,8.09,7,6.88-.07,0,6.38-.1,3.92-8.87,0,.16,1.82-1.53,9.1,3.6" transform="translate(-122.69 -254.6)"/><circle class="cls-1" cx="199.2" cy="105.37" r="2.62"/><circle class="cls-1" cx="205.76" cy="102.44" r="1.28"/></g><g id="Camada_14" data-name="Camada 14"><path class="cls-12" d="M258.4,343.7a37.11,37.11,0,0,1,31.75,0c-.09.17,4,5.53-3.92,4.26,0,.08-2.6-3.69-14.8-4.17C271.26,344.21,268.53,342.77,258.4,343.7Z" transform="translate(-122.69 -254.6)"/><path class="cls-12" d="M343,343.7a37.09,37.09,0,0,0-31.74,0c.08.17-4,5.53,3.91,4.26,0,.08,2.61-3.69,14.81-4.17C330.15,344.21,332.87,342.77,343,343.7Z" transform="translate(-122.69 -254.6)"/></g><g id="Camada_16" data-name="Camada 16"><path class="cls-12" d="M346.66,365.87s4.08-54.13-13.62-55c.17-.17-13.44,6.06-19.06-2.42.34,1.06-11.58,3.78-15.66,3.78,0,.17-19.92,1.7-20.43-.17-.34.34-9.36,4.94-14.12,4.6.85.17-4.77,12.93-9.2,14.29.17,0,0,28.6,0,28.6s-10.72-32.34-6.29-44.6c-.17-.51-12.77-9-3.24-21.27-.34.51,7-10.73-3.56-6.3.16,0-3.25,1.87-3.25,1.87s1.37-21.28,23.32-18c0,.34.41-12.69,14.68-12.92a35.37,35.37,0,0,1,8.88.58,24,24,0,0,1,7.54,3.32s3.12-13.62,25.75-4.43c.51-.17,32.86,12.09,33.54,36.43,0,.17,5.27-3.41,6.29-6.64-.17.51,2.73,13.15-1.19,22.66-.51.15,1.7,1.34,4.94-3.43-.34.17-1.7,10.39-5.45,14.64C356.87,322.29,351.43,363,346.66,365.87Z" transform="translate(-122.69 -254.6)"/></g><g id="Camada_17" data-name="Camada 17"><path class="cls-13" d="M241.81,299.11s-4.94,9.61,15,22.72c.17.17.76-.51.76-.51S241.3,307.45,241.81,299.11Z" transform="translate(-122.69 -254.6)"/><path class="cls-13" d="M247.34,297.06s-5.45,16.34,13.11,17.2C260.62,314.26,249.89,308.81,247.34,297.06Z" transform="translate(-122.69 -254.6)"/><path class="cls-13" d="M245.38,283.45s8.17,17.27,7.15,20.68c.6-.26,3,8.42,15.24,8.25.51.17,9.78-.91,11.57-1.9-.17,0-16.08-10.35-15.23-18.78-.09.34-4.77-16.51-17.11-14.38-.43.25,8.34,2.47,9.53,7.91.09-.25,5.11,3.07,4.85,10.56.17-.17,3.15,8.51,10.47,12.25.17-.08-14.3,1.19-17.45-11.91C254.57,295.79,249,283.53,245.38,283.45Z" transform="translate(-122.69 -254.6)"/><path class="cls-13" d="M259.51,275.79s9.11,9.95,10,15.49c-.34-.09,11.24,17.73,22.39,19.2.17-.05,6.72-.57,6.72-.57s1.19-22,0-24.68c.17-.08-5.19-18.21-23-16.85.6,0,19.92,13.53,20.17,31.07.09.25-.34,7.66-.34,7.66s-9.36-1.2-11.49-7.49c-.25.34,5.28,2.55,8,2.29,0,.26-15.74-14.29-14.3-16,0,.09-3.15-14.55-10.72-14.72.6.6,6.89,9,5.87,12.94C273,284.21,262.88,272,259.51,275.79Z" transform="translate(-122.69 -254.6)"/><path class="cls-13" d="M269.64,263.28s43.83-11.83,35.49,35.32C305.64,298.6,303.26,264,269.64,263.28Z" transform="translate(-122.69 -254.6)"/><path class="cls-13" d="M298.79,264.77s18.25,15.57,9,41.42C308.36,306.77,326.87,280.47,298.79,264.77Z" transform="translate(-122.69 -254.6)"/><path class="cls-13" d="M307.85,262a48.69,48.69,0,0,0,11.36,22.47s3.07,16.48-3.32,21.77c.77-.46,8.94-2.17,6.39-22.12C322.91,284.55,316.66,277.27,307.85,262Z" transform="translate(-122.69 -254.6)"/><path class="cls-13" d="M321.13,266.17s13.78,21.83-1,42.13C320.11,308.43,347,292.21,321.13,266.17Z" transform="translate(-122.69 -254.6)"/><path class="cls-13" d="M336.7,274.72s5.49,24.26-8.17,34.73C328.53,309.83,349.34,297.19,336.7,274.72Z" transform="translate(-122.69 -254.6)"/><path class="cls-13" d="M345.89,284.08s-2.42,20.29-10.72,26.4a15,15,0,0,1,2,1.92S357.89,298,345.89,284.08Z" transform="translate(-122.69 -254.6)"/><path class="cls-13" d="M353.68,299.11s-5.64,10.5-12.9,13.29C340.91,312.38,354.19,313.79,353.68,299.11Z" transform="translate(-122.69 -254.6)"/><path class="cls-13" d="M342.4,315.45h12.43S346.45,321.06,342.4,315.45Z" transform="translate(-122.69 -254.6)"/><path class="cls-13" d="M353.17,325.79l-9.32-4.47S344.87,326.3,353.17,325.79Z" transform="translate(-122.69 -254.6)"/></g></svg>